<svg xmlns="http://www.w3.org/2000/svg" xmlns:xlink="http://www.w3.org/1999/xlink" width="500" zoomAndPan="magnify" viewBox="0 0 375 374.999991" height="500" preserveAspectRatio="xMidYMid meet" version="1.0"><defs><g/><clipPath id="dd26ab1a77"><path d="M 0 109.832031 L 107.660156 109.832031 L 107.660156 237.355469 L 0 237.355469 Z M 0 109.832031 " clip-rule="nonzero"/></clipPath><clipPath id="0a75d08403"><path d="M 24.816406 157.414062 L 82.492188 157.414062 L 82.492188 189.457031 L 24.816406 189.457031 Z M 24.816406 157.414062 " clip-rule="nonzero"/></clipPath></defs><g clip-path="url(#dd26ab1a77)"><path fill="#000d1d" d="M 106.367188 128.375 C 104.777344 126.570312 102.136719 127.042969 100.015625 126.5625 C 84.636719 124.03125 70.191406 117.746094 56.390625 110.707031 C 55.734375 110.394531 55.050781 110.125 54.363281 109.886719 L 53.367188 109.886719 C 50.972656 110.601562 48.847656 111.96875 46.59375 113.011719 C 34.488281 118.957031 21.796875 124.078125 8.453125 126.421875 C 6.535156 126.808594 4.535156 126.777344 2.65625 127.339844 C 1.164062 127.996094 0.0703125 129.558594 0.15625 131.210938 C 0 140.414062 0.335938 149.621094 1.054688 158.792969 C 2.09375 170.464844 3.773438 182.203125 7.699219 193.296875 C 9.605469 198.441406 12.027344 203.496094 15.675781 207.648438 C 25.632812 219.433594 38.003906 229.09375 51.539062 236.445312 C 52.113281 236.734375 52.714844 236.96875 53.332031 237.152344 L 54.199219 237.152344 C 56.613281 236.472656 58.609375 234.863281 60.816406 233.730469 C 71.304688 227.523438 80.898438 219.796875 89.160156 210.835938 C 91.65625 208.011719 94.222656 205.179688 96.007812 201.839844 C 100.164062 194.457031 102.355469 186.171875 103.996094 177.917969 C 106.820312 162.875 107.550781 147.519531 107.464844 132.242188 C 107.511719 130.878906 107.40625 129.382812 106.367188 128.375 Z M 100.53125 174.539062 C 98.84375 183.804688 96.644531 193.242188 91.664062 201.355469 C 87.238281 207.757812 81.539062 213.15625 75.703125 218.25 C 68.96875 224 61.566406 228.917969 53.800781 233.160156 C 40.175781 225.765625 27.699219 216.039062 17.851562 204.019531 C 12.773438 197.527344 10.371094 189.449219 8.472656 181.554688 C 4.804688 164.996094 3.933594 147.941406 4.171875 131.023438 C 21.75 129.042969 38.175781 121.808594 53.804688 113.882812 C 69.429688 121.816406 85.875 129.03125 103.460938 131.015625 C 103.679688 145.566406 102.984375 160.175781 100.53125 174.539062 Z M 100.53125 174.539062 " fill-opacity="1" fill-rule="nonzero"/></g><path fill="#000d1d" d="M 12.070312 137.933594 C 12.363281 153.589844 13.261719 169.414062 17.398438 184.585938 C 19.019531 190.175781 21.101562 195.859375 25.09375 200.230469 C 33.125 209.828125 43.082031 217.65625 53.808594 224.035156 C 65.222656 217.25 75.761719 208.785156 84.054688 198.359375 C 87.980469 192.972656 89.839844 186.425781 91.378906 180.023438 C 94.46875 166.230469 95.304688 152.035156 95.53125 137.9375 C 80.925781 135.117188 67.0625 129.429688 53.804688 122.808594 C 40.539062 129.429688 26.679688 135.125 12.070312 137.933594 Z M 12.070312 137.933594 " fill-opacity="1" fill-rule="nonzero"/><path fill="#ffffff" d="M 53.773438 168.214844 C 50.847656 168.214844 48.46875 170.59375 48.46875 173.519531 C 48.46875 176.449219 50.847656 178.828125 53.773438 178.828125 C 56.699219 178.828125 59.082031 176.449219 59.082031 173.519531 C 59.082031 170.59375 56.699219 168.214844 53.773438 168.214844 " fill-opacity="1" fill-rule="nonzero"/><g clip-path="url(#0a75d08403)"><path fill="#ffffff" d="M 79.09375 173.855469 C 78.71875 174.277344 71.589844 182.203125 61.875 185.480469 C 65.628906 182.890625 68.089844 178.5625 68.089844 173.671875 C 68.089844 168.378906 65.207031 163.746094 60.929688 161.261719 C 71.125 164.320312 78.707031 172.75 79.09375 173.1875 L 79.390625 173.519531 Z M 28.453125 173.855469 L 28.15625 173.519531 L 28.449219 173.191406 C 28.835938 172.757812 36.394531 164.417969 46.472656 161.3125 C 42.246094 163.8125 39.402344 168.414062 39.402344 173.671875 C 39.402344 178.535156 41.839844 182.839844 45.550781 185.433594 C 35.914062 182.132812 28.824219 174.273438 28.453125 173.855469 Z M 53.746094 185.269531 C 47.351562 185.269531 42.148438 180.066406 42.148438 173.671875 C 42.148438 167.277344 47.351562 162.074219 53.746094 162.074219 C 60.140625 162.074219 65.34375 167.277344 65.34375 173.671875 C 65.34375 180.066406 60.140625 185.269531 53.746094 185.269531 Z M 82.253906 172.609375 L 81.148438 171.363281 C 80.640625 170.792969 68.609375 157.414062 53.773438 157.414062 C 47.566406 157.414062 41.140625 159.699219 34.667969 164.199219 C 29.882812 167.527344 26.746094 170.976562 26.398438 171.363281 L 25.292969 172.609375 C 24.832031 173.128906 24.832031 173.910156 25.292969 174.429688 L 26.402344 175.679688 C 26.738281 176.058594 29.839844 179.488281 34.664062 182.84375 C 41.132812 187.34375 47.5625 189.625 53.773438 189.625 C 68.609375 189.625 80.640625 176.246094 81.144531 175.679688 L 82.253906 174.433594 C 82.714844 173.914062 82.714844 173.128906 82.253906 172.609375 " fill-opacity="1" fill-rule="nonzero"/></g><g fill="#000d1d" fill-opacity="1"><g transform="translate(117.401085, 192.740298)"><g><path d="M 18.890625 -36.578125 C 21.515625 -36.578125 23.753906 -36.097656 25.609375 -35.140625 C 27.472656 -34.179688 28.878906 -32.835938 29.828125 -31.109375 C 30.773438 -29.390625 31.25 -27.382812 31.25 -25.09375 C 31.25 -22.8125 30.773438 -20.8125 29.828125 -19.09375 C 28.878906 -17.375 27.472656 -16.035156 25.609375 -15.078125 C 23.753906 -14.117188 21.515625 -13.640625 18.890625 -13.640625 L 11.984375 -13.640625 L 11.984375 0 L 4.75 0 L 4.75 -36.578125 Z M 17.9375 -19.375 C 21.957031 -19.375 23.96875 -21.28125 23.96875 -25.09375 C 23.96875 -28.9375 21.957031 -30.859375 17.9375 -30.859375 L 11.984375 -30.859375 L 11.984375 -19.375 Z M 17.9375 -19.375 "/></g></g></g><g fill="#000d1d" fill-opacity="1"><g transform="translate(150.827525, 192.740298)"><g><path d="M 3.984375 0 L 3.984375 -27.609375 L 10.703125 -27.609375 L 10.703125 -23.5 L 11.234375 -23.390625 C 11.898438 -24.929688 12.773438 -26.0625 13.859375 -26.78125 C 14.941406 -27.5 16.257812 -27.859375 17.8125 -27.859375 C 19.382812 -27.859375 20.578125 -27.585938 21.390625 -27.046875 L 20.21875 -21.078125 L 19.6875 -20.96875 C 19.238281 -21.15625 18.804688 -21.289062 18.390625 -21.375 C 17.972656 -21.457031 17.460938 -21.5 16.859375 -21.5 C 14.929688 -21.5 13.457031 -20.816406 12.4375 -19.453125 C 11.414062 -18.097656 10.90625 -15.914062 10.90625 -12.90625 L 10.90625 0 Z M 3.984375 0 "/></g></g></g><g fill="#000d1d" fill-opacity="1"><g transform="translate(172.46965, 192.740298)"><g><path d="M 16.046875 0.53125 C 13.335938 0.53125 10.960938 -0.0195312 8.921875 -1.125 C 6.878906 -2.238281 5.296875 -3.867188 4.171875 -6.015625 C 3.046875 -8.160156 2.484375 -10.75 2.484375 -13.78125 C 2.484375 -16.820312 3.046875 -19.414062 4.171875 -21.5625 C 5.296875 -23.71875 6.878906 -25.347656 8.921875 -26.453125 C 10.960938 -27.566406 13.335938 -28.125 16.046875 -28.125 C 18.742188 -28.125 21.113281 -27.566406 23.15625 -26.453125 C 25.195312 -25.347656 26.785156 -23.71875 27.921875 -21.5625 C 29.054688 -19.414062 29.625 -16.820312 29.625 -13.78125 C 29.625 -10.75 29.054688 -8.160156 27.921875 -6.015625 C 26.785156 -3.867188 25.195312 -2.238281 23.15625 -1.125 C 21.113281 -0.0195312 18.742188 0.53125 16.046875 0.53125 Z M 16.046875 -5.359375 C 20.328125 -5.359375 22.46875 -8.164062 22.46875 -13.78125 C 22.46875 -16.707031 21.914062 -18.847656 20.8125 -20.203125 C 19.71875 -21.566406 18.128906 -22.25 16.046875 -22.25 C 11.753906 -22.25 9.609375 -19.425781 9.609375 -13.78125 C 9.609375 -8.164062 11.753906 -5.359375 16.046875 -5.359375 Z M 16.046875 -5.359375 "/></g></g></g><g fill="#000d1d" fill-opacity="1"><g transform="translate(204.545021, 192.740298)"><g><path d="M 17.921875 -36.578125 C 23.859375 -36.578125 28.390625 -35.039062 31.515625 -31.96875 C 34.640625 -28.90625 36.203125 -24.347656 36.203125 -18.296875 C 36.203125 -12.253906 34.640625 -7.691406 31.515625 -4.609375 C 28.390625 -1.535156 23.859375 0 17.921875 0 L 4.75 0 L 4.75 -36.578125 Z M 17.484375 -6.078125 C 21.253906 -6.078125 24.070312 -7.039062 25.9375 -8.96875 C 27.8125 -10.894531 28.75 -14.003906 28.75 -18.296875 C 28.75 -22.578125 27.8125 -25.679688 25.9375 -27.609375 C 24.070312 -29.535156 21.253906 -30.5 17.484375 -30.5 L 11.984375 -30.5 L 11.984375 -6.078125 Z M 17.484375 -6.078125 "/></g></g></g><g fill="#000d1d" fill-opacity="1"><g transform="translate(243.650961, 192.740298)"><g><path d="M 27.28125 -12.234375 L 9.53125 -12.234375 C 9.726562 -9.835938 10.410156 -8.09375 11.578125 -7 C 12.753906 -5.90625 14.347656 -5.359375 16.359375 -5.359375 C 17.953125 -5.359375 19.238281 -5.648438 20.21875 -6.234375 C 21.207031 -6.828125 22 -7.726562 22.59375 -8.9375 L 23.125 -8.9375 L 27.734375 -5.984375 C 26.828125 -4.046875 25.460938 -2.472656 23.640625 -1.265625 C 21.828125 -0.0664062 19.398438 0.53125 16.359375 0.53125 C 13.515625 0.53125 11.050781 -0.0078125 8.96875 -1.09375 C 6.894531 -2.1875 5.296875 -3.800781 4.171875 -5.9375 C 3.046875 -8.082031 2.484375 -10.695312 2.484375 -13.78125 C 2.484375 -16.925781 3.070312 -19.570312 4.25 -21.71875 C 5.4375 -23.875 7.039062 -25.476562 9.0625 -26.53125 C 11.082031 -27.59375 13.347656 -28.125 15.859375 -28.125 C 19.765625 -28.125 22.753906 -27.085938 24.828125 -25.015625 C 26.910156 -22.953125 27.953125 -19.921875 27.953125 -15.921875 C 27.953125 -14.460938 27.898438 -13.332031 27.796875 -12.53125 Z M 21.328125 -16.71875 C 21.253906 -18.820312 20.765625 -20.351562 19.859375 -21.3125 C 18.953125 -22.269531 17.617188 -22.75 15.859375 -22.75 C 12.359375 -22.75 10.300781 -20.738281 9.6875 -16.71875 Z M 21.328125 -16.71875 "/></g></g></g><g fill="#000d1d" fill-opacity="1"><g transform="translate(273.649698, 192.740298)"><g><path d="M 19.046875 -6.578125 L 20.84375 -1.453125 C 20.09375 -0.835938 19.148438 -0.351562 18.015625 0 C 16.878906 0.351562 15.59375 0.53125 14.15625 0.53125 C 11.175781 0.53125 8.910156 -0.28125 7.359375 -1.90625 C 5.804688 -3.539062 5.03125 -5.910156 5.03125 -9.015625 L 5.03125 -22.125 L 0.828125 -22.125 L 0.828125 -27.625 L 5.03125 -27.625 L 5.03125 -33 L 11.96875 -34.140625 L 11.96875 -27.625 L 19.796875 -27.625 L 19.796875 -22.125 L 11.96875 -22.125 L 11.96875 -9.515625 C 11.96875 -8.140625 12.25 -7.140625 12.8125 -6.515625 C 13.375 -5.890625 14.203125 -5.578125 15.296875 -5.578125 C 16.523438 -5.578125 17.597656 -5.910156 18.515625 -6.578125 Z M 19.046875 -6.578125 "/></g></g></g><g fill="#000d1d" fill-opacity="1"><g transform="translate(295.091665, 192.740298)"><g><path d="M 27.28125 -12.234375 L 9.53125 -12.234375 C 9.726562 -9.835938 10.410156 -8.09375 11.578125 -7 C 12.753906 -5.90625 14.347656 -5.359375 16.359375 -5.359375 C 17.953125 -5.359375 19.238281 -5.648438 20.21875 -6.234375 C 21.207031 -6.828125 22 -7.726562 22.59375 -8.9375 L 23.125 -8.9375 L 27.734375 -5.984375 C 26.828125 -4.046875 25.460938 -2.472656 23.640625 -1.265625 C 21.828125 -0.0664062 19.398438 0.53125 16.359375 0.53125 C 13.515625 0.53125 11.050781 -0.0078125 8.96875 -1.09375 C 6.894531 -2.1875 5.296875 -3.800781 4.171875 -5.9375 C 3.046875 -8.082031 2.484375 -10.695312 2.484375 -13.78125 C 2.484375 -16.925781 3.070312 -19.570312 4.25 -21.71875 C 5.4375 -23.875 7.039062 -25.476562 9.0625 -26.53125 C 11.082031 -27.59375 13.347656 -28.125 15.859375 -28.125 C 19.765625 -28.125 22.753906 -27.085938 24.828125 -25.015625 C 26.910156 -22.953125 27.953125 -19.921875 27.953125 -15.921875 C 27.953125 -14.460938 27.898438 -13.332031 27.796875 -12.53125 Z M 21.328125 -16.71875 C 21.253906 -18.820312 20.765625 -20.351562 19.859375 -21.3125 C 18.953125 -22.269531 17.617188 -22.75 15.859375 -22.75 C 12.359375 -22.75 10.300781 -20.738281 9.6875 -16.71875 Z M 21.328125 -16.71875 "/></g></g></g><g fill="#000d1d" fill-opacity="1"><g transform="translate(325.090401, 192.740298)"><g><path d="M 16.09375 0.53125 C 13.425781 0.53125 11.066406 -0.0195312 9.015625 -1.125 C 6.960938 -2.238281 5.359375 -3.875 4.203125 -6.03125 C 3.054688 -8.1875 2.484375 -10.769531 2.484375 -13.78125 C 2.484375 -16.820312 3.054688 -19.414062 4.203125 -21.5625 C 5.359375 -23.71875 6.953125 -25.347656 8.984375 -26.453125 C 11.015625 -27.566406 13.34375 -28.125 15.96875 -28.125 C 21.789062 -28.125 25.519531 -26.015625 27.15625 -21.796875 L 22.390625 -18.390625 L 21.875 -18.390625 C 21.300781 -19.691406 20.5625 -20.660156 19.65625 -21.296875 C 18.75 -21.929688 17.519531 -22.25 15.96875 -22.25 C 13.96875 -22.25 12.40625 -21.554688 11.28125 -20.171875 C 10.164062 -18.785156 9.609375 -16.65625 9.609375 -13.78125 C 9.609375 -10.945312 10.175781 -8.832031 11.3125 -7.4375 C 12.445312 -6.050781 14.039062 -5.359375 16.09375 -5.359375 C 17.59375 -5.359375 18.863281 -5.757812 19.90625 -6.5625 C 20.945312 -7.375 21.691406 -8.539062 22.140625 -10.0625 L 22.671875 -10.109375 L 27.609375 -7.40625 C 26.898438 -5.070312 25.597656 -3.164062 23.703125 -1.6875 C 21.816406 -0.207031 19.28125 0.53125 16.09375 0.53125 Z M 16.09375 0.53125 "/></g></g></g><g fill="#000d1d" fill-opacity="1"><g transform="translate(353.53791, 192.740298)"><g><path d="M 19.046875 -6.578125 L 20.84375 -1.453125 C 20.09375 -0.835938 19.148438 -0.351562 18.015625 0 C 16.878906 0.351562 15.59375 0.53125 14.15625 0.53125 C 11.175781 0.53125 8.910156 -0.28125 7.359375 -1.90625 C 5.804688 -3.539062 5.03125 -5.910156 5.03125 -9.015625 L 5.03125 -22.125 L 0.828125 -22.125 L 0.828125 -27.625 L 5.03125 -27.625 L 5.03125 -33 L 11.96875 -34.140625 L 11.96875 -27.625 L 19.796875 -27.625 L 19.796875 -22.125 L 11.96875 -22.125 L 11.96875 -9.515625 C 11.96875 -8.140625 12.25 -7.140625 12.8125 -6.515625 C 13.375 -5.890625 14.203125 -5.578125 15.296875 -5.578125 C 16.523438 -5.578125 17.597656 -5.910156 18.515625 -6.578125 Z M 19.046875 -6.578125 "/></g></g></g></svg>